HIERARCHY
ROOT Hips
{
	OFFSET 0.000000 121.760803 0.000000
	CHANNELS 6 Xposition Yposition Zposition Xrotation Yrotation Zrotation 
	JOINT Spine
	{
		OFFSET 0.072000 7.257294 -0.789700
		CHANNELS 3 Xrotation Yrotation Zrotation
		JOINT Spine1
		{
			OFFSET 0.000000 12.508769 -0.658067
			CHANNELS 3 Xrotation Yrotation Zrotation
			JOINT Spine1_split
			{
				OFFSET 0.000000 12.508769 -0.658067
				CHANNELS 3 Xrotation Yrotation Zrotation
				JOINT Spine2
				{
					OFFSET 0.000000 12.508769 -0.658067
					CHANNELS 3 Xrotation Yrotation Zrotation
					JOINT Neck
					{
						OFFSET 0.000000 14.033295 7.520400
						CHANNELS 3 Xrotation Yrotation Zrotation
						JOINT Head
						{
							OFFSET 0.000000 8.198502 5.703100
							CHANNELS 3 Xrotation Yrotation Zrotation
							JOINT HeadTop_End
							{
								OFFSET 0.000000 17.760803 13.332701
								CHANNELS 3 Xrotation Yrotation Zrotation
								End Site
								{
									OFFSET 0.000000 0.000000 0.000000
								}
							}
						}
					}
					JOINT LeftShoulder
					{
						OFFSET 6.292450 5.785301 -0.669000
						CHANNELS 3 Xrotation Yrotation Zrotation
						JOINT LeftShoulder_split
						{
							OFFSET 6.292450 5.785301 -0.669000
							CHANNELS 3 Xrotation Yrotation Zrotation
							JOINT LeftArm
							{
								OFFSET 13.907140 -6.093903 1.965100
								CHANNELS 3 Xrotation Yrotation Zrotation
								JOINT LeftForeArm
								{
									OFFSET 34.140198 0.000000 0.000000
									CHANNELS 3 Xrotation Yrotation Zrotation
									JOINT LeftHand
									{
										OFFSET 40.960209 0.000000 0.000000
										CHANNELS 3 Xrotation Yrotation Zrotation
										JOINT LeftHandThumb1
										{
											OFFSET 10.006996 -7.170425 9.573125
											CHANNELS 3 Xrotation Yrotation Zrotation
											JOINT LeftHandThumb2
											{
												OFFSET 1.835007 -1.059448 1.059443
												CHANNELS 3 Xrotation Yrotation Zrotation
												JOINT LeftHandThumb3
												{
													OFFSET 2.112267 -1.219513 1.219518
													CHANNELS 3 Xrotation Yrotation Zrotation
													JOINT LeftHandThumb4
													{
														OFFSET 4.843811 -2.796570 2.796576
														CHANNELS 3 Xrotation Yrotation Zrotation
														End Site
														{
															OFFSET 0.000000 0.000000 0.000000
														}
													}
												}
											}
										}
										JOINT LeftHandIndex1
										{
											OFFSET 18.389847 -0.922348 4.596882
											CHANNELS 3 Xrotation Yrotation Zrotation
											JOINT LeftHandIndex2
											{
												OFFSET 4.711273 0.000000 0.000000
												CHANNELS 3 Xrotation Yrotation Zrotation
												JOINT LeftHandIndex3
												{
													OFFSET 2.886131 0.000000 0.000000
													CHANNELS 3 Xrotation Yrotation Zrotation
													JOINT LeftHandIndex4
													{
														OFFSET 6.145912 0.000000 0.000000
														CHANNELS 3 Xrotation Yrotation Zrotation
														End Site
														{
															OFFSET 0.000000 0.000000 0.000000
														}
													}
												}
											}
										}
										JOINT LeftHandMiddle1
										{
											OFFSET 18.013008 0.000000 0.000000
											CHANNELS 3 Xrotation Yrotation Zrotation
											JOINT LeftHandMiddle2
											{
												OFFSET 4.946693 0.000000 0.000000
												CHANNELS 3 Xrotation Yrotation Zrotation
												JOINT LeftHandMiddle3
												{
													OFFSET 3.342232 0.000000 0.000000
													CHANNELS 3 Xrotation Yrotation Zrotation
													JOINT LeftHandMiddle4
													{
														OFFSET 4.461754 0.000000 0.000000
														CHANNELS 3 Xrotation Yrotation Zrotation
														End Site
														{
															OFFSET 0.000000 0.000000 0.000000
														}
													}
												}
											}
										}
										JOINT LeftHandRing1
										{
											OFFSET 15.849892 -0.102921 -4.126150
											CHANNELS 3 Xrotation Yrotation Zrotation
											JOINT LeftHandRing2
											{
												OFFSET 3.527054 0.000000 0.000000
												CHANNELS 3 Xrotation Yrotation Zrotation
												JOINT LeftHandRing3
												{
													OFFSET 2.961098 0.000000 0.000000
													CHANNELS 3 Xrotation Yrotation Zrotation
													JOINT LeftHandRing4
													{
														OFFSET 4.927200 0.000000 0.000000
														CHANNELS 3 Xrotation Yrotation Zrotation
														End Site
														{
															OFFSET 0.000000 0.000000 0.000000
														}
													}
												}
											}
										}
										JOINT LeftHandPinky1
										{
											OFFSET 12.791824 -0.832031 -6.799156
											CHANNELS 3 Xrotation Yrotation Zrotation
											JOINT LeftHandPinky2
											{
												OFFSET 3.327133 0.000000 0.000000
												CHANNELS 3 Xrotation Yrotation Zrotation
												JOINT LeftHandPinky3
												{
													OFFSET 3.014900 0.000000 0.000000
													CHANNELS 3 Xrotation Yrotation Zrotation
													JOINT LeftHandPinky4
													{
														OFFSET 5.847786 0.000000 0.000000
														CHANNELS 3 Xrotation Yrotation Zrotation
														End Site
														{
															OFFSET 0.000000 0.000000 0.000000
														}
													}
												}
											}
										}
									}
								}
							}
						}
					}
					JOINT RightShoulder
					{
						OFFSET -6.292450 5.785301 -0.669000
						CHANNELS 3 Xrotation Yrotation Zrotation
						JOINT RightShoulder_split
						{
							OFFSET -6.292450 5.785301 -0.669000
							CHANNELS 3 Xrotation Yrotation Zrotation
							JOINT RightArm
							{
								OFFSET -13.907140 -6.093903 1.965100
								CHANNELS 3 Xrotation Yrotation Zrotation
								JOINT RightForeArm
								{
									OFFSET -34.140198 0.000000 0.000000
									CHANNELS 3 Xrotation Yrotation Zrotation
									JOINT RightHand
									{
										OFFSET -40.960209 0.000000 0.000000
										CHANNELS 3 Xrotation Yrotation Zrotation
										JOINT RightHandThumb1
										{
											OFFSET -10.007050 -7.170456 9.573117
											CHANNELS 3 Xrotation Yrotation Zrotation
											JOINT RightHandThumb2
											{
												OFFSET -1.835007 -1.059448 1.059443
												CHANNELS 3 Xrotation Yrotation Zrotation
												JOINT RightHandThumb3
												{
													OFFSET -2.112267 -1.219513 1.219518
													CHANNELS 3 Xrotation Yrotation Zrotation
													JOINT RightHandThumb4
													{
														OFFSET -4.843834 -2.796585 2.796590
														CHANNELS 3 Xrotation Yrotation Zrotation
														End Site
														{
															OFFSET 0.000000 0.000000 0.000000
														}
													}
												}
											}
										}
										JOINT RightHandIndex1
										{
											OFFSET -18.389870 -0.922424 4.596786
											CHANNELS 3 Xrotation Yrotation Zrotation
											JOINT RightHandIndex2
											{
												OFFSET -4.711273 0.000000 0.000000
												CHANNELS 3 Xrotation Yrotation Zrotation
												JOINT RightHandIndex3
												{
													OFFSET -2.886131 0.000000 0.000000
													CHANNELS 3 Xrotation Yrotation Zrotation
													JOINT RightHandIndex4
													{
														OFFSET -6.145920 0.000000 0.000000
														CHANNELS 3 Xrotation Yrotation Zrotation
														End Site
														{
															OFFSET 0.000000 0.000000 0.000000
														}
													}
												}
											}
										}
										JOINT RightHandMiddle1
										{
											OFFSET -18.013008 0.000000 0.000000
											CHANNELS 3 Xrotation Yrotation Zrotation
											JOINT RightHandMiddle2
											{
												OFFSET -4.946693 0.000000 0.000000
												CHANNELS 3 Xrotation Yrotation Zrotation
												JOINT RightHandMiddle3
												{
													OFFSET -3.342232 0.000000 0.000000
													CHANNELS 3 Xrotation Yrotation Zrotation
													JOINT RightHandMiddle4
													{
														OFFSET -4.461754 0.000000 0.000000
														CHANNELS 3 Xrotation Yrotation Zrotation
														End Site
														{
															OFFSET 0.000000 0.000000 0.000000
														}
													}
												}
											}
										}
										JOINT RightHandRing1
										{
											OFFSET -15.849876 -0.102936 -4.126237
											CHANNELS 3 Xrotation Yrotation Zrotation
											JOINT RightHandRing2
											{
												OFFSET -3.527054 0.000000 0.000000
												CHANNELS 3 Xrotation Yrotation Zrotation
												JOINT RightHandRing3
												{
													OFFSET -2.961098 0.000000 0.000000
													CHANNELS 3 Xrotation Yrotation Zrotation
													JOINT RightHandRing4
													{
														OFFSET -4.927200 0.000000 0.000000
														CHANNELS 3 Xrotation Yrotation Zrotation
														End Site
														{
															OFFSET 0.000000 0.000000 0.000000
														}
													}
												}
											}
										}
										JOINT RightHandPinky1
										{
											OFFSET -12.791786 -0.832077 -6.799222
											CHANNELS 3 Xrotation Yrotation Zrotation
											JOINT RightHandPinky2
											{
												OFFSET -3.327133 0.000000 0.000000
												CHANNELS 3 Xrotation Yrotation Zrotation
												JOINT RightHandPinky3
												{
													OFFSET -3.014900 0.000000 0.000000
													CHANNELS 3 Xrotation Yrotation Zrotation
													JOINT RightHandPinky4
													{
														OFFSET -5.847786 0.000000 0.000000
														CHANNELS 3 Xrotation Yrotation Zrotation
														End Site
														{
															OFFSET 0.000000 0.000000 0.000000
														}
													}
												}
											}
										}
									}
								}
							}
						}
					}
				}
			}
		}
	}
	JOINT LeftUpLeg
	{
		OFFSET 13.026900 -6.336304 -1.092800
		CHANNELS 3 Xrotation Yrotation Zrotation
		JOINT LeftLeg
		{
			OFFSET 0.524474 -46.096886 9.782700
			CHANNELS 3 Xrotation Yrotation Zrotation
			JOINT LeftFoot
			{
				OFFSET -0.524474 -53.427422 -12.948200
				CHANNELS 3 Xrotation Yrotation Zrotation
				JOINT LeftToeBase
				{
					OFFSET 0.192200 -14.009700 16.364100
					CHANNELS 3 Xrotation Yrotation Zrotation
					JOINT LeftToe_End
					{
						OFFSET -1.784700 -0.561700 9.474800
						CHANNELS 3 Xrotation Yrotation Zrotation
						End Site
						{
							OFFSET 0.000000 0.000000 0.000000
						}
					}
				}
			}
		}
	}
	JOINT RightUpLeg
	{
		OFFSET -12.883000 -6.336304 -1.092800
		CHANNELS 3 Xrotation Yrotation Zrotation
		JOINT RightLeg
		{
			OFFSET -0.524587 -46.096825 9.782800
			CHANNELS 3 Xrotation Yrotation Zrotation
			JOINT RightFoot
			{
				OFFSET 0.524587 -53.427383 -12.948300
				CHANNELS 3 Xrotation Yrotation Zrotation
				JOINT RightToeBase
				{
					OFFSET -0.192200 -14.009700 16.364100
					CHANNELS 3 Xrotation Yrotation Zrotation
					JOINT RightToe_End
					{
						OFFSET 1.784700 -0.561700 9.474800
						CHANNELS 3 Xrotation Yrotation Zrotation
						End Site
						{
							OFFSET 0.000000 0.000000 0.000000
						}
					}
				}
			}
		}
	}
}
MOTION
Frames: 5
Frame Time: 0.016667
-0.038389 131.200012 -0.595078 -90.807877 -2.077753 1.604401 0.698952 -0.131973 -0.755423 0.841690 0.154199 -0.463161 0.000000 0.000000 0.000000 0.831244 0.158014 -0.488483 -3.902730 4.009046 -8.413909 2.479712 8.403992 -12.879458 -0.000000 0.000000 0.000002 0.834132 -6.730776 -3.480306 0.000000 0.000000 0.000000 44.076604 -39.845841 -34.620883 0.000031 -83.340507 0.000021 -23.114871 -8.492749 7.463182 -1.945764 1.585347 13.204797 8.601860 21.114949 -0.258294 -4.250524 28.326755 20.005252 0.000001 -0.000000 -0.000002 0.776309 5.158040 -28.512492 0.566013 2.514173 -25.370932 0.306476 1.871758 -18.596443 -0.000001 0.000000 -0.000001 0.776306 5.158035 -28.512498 0.566011 2.514180 -25.370931 0.084763 0.994024 -9.747970 -0.000003 -0.000001 -0.000001 0.776307 5.158032 -28.512500 0.351473 2.000426 -19.928009 0.131449 1.235368 -12.147808 -0.000001 -0.000001 -0.000001 0.776303 5.158041 -28.512498 0.064899 0.870546 -8.527016 0.131461 1.235369 -12.147806 0.000001 0.000000 -0.000000 0.483606 4.500680 3.202688 0.000000 0.000000 0.000000 -4.326308 2.268501 83.611515 0.000035 129.571981 -0.000025 -0.045404 -5.712098 64.766798 -1.120910 -3.665706 -6.555861 8.244832 -30.620786 -3.274786 -5.098223 -8.587461 -15.375844 -0.000002 0.000001 0.000000 4.540598 -8.344327 48.387403 6.575553 -4.244505 114.349080 1.886328 -3.744690 53.459816 0.000000 -0.000001 0.000000 2.375471 -6.542198 44.640214 7.222607 -3.888171 123.454809 1.885855 -3.744341 53.452681 -0.000002 -0.000001 -0.000001 2.745560 -6.923872 44.442282 7.225017 -3.886594 123.490298 1.886198 -3.744591 53.457821 -0.000001 -0.000000 -0.000000 -10.268031 -14.528487 47.436292 6.314152 -4.353042 110.862904 1.885505 -3.744062 53.447197 -0.000001 0.000000 -0.000000 -3.416884 19.815052 15.176098 2.787794 2.153090 1.567652 22.994255 29.834983 -25.485727 -1.872572 0.000007 0.000011 0.000001 -0.000000 0.000000 -5.071393 -19.610103 -16.990212 2.150477 -6.088595 -4.765478 33.810925 -29.964542 30.877076 -4.604381 0.000018 0.000011 0.000001 -0.000002 0.000000 
-0.038073 131.200089 -0.593750 -90.808622 -2.077427 1.605278 0.698915 -0.132002 -0.755083 0.841692 0.154199 -0.463160 0.000000 0.000000 0.000000 0.831235 0.158014 -0.488483 -3.911639 4.013356 -8.413907 2.496868 8.457174 -12.890523 -0.000000 -0.000001 0.000001 0.834531 -6.714839 -3.485307 0.000000 0.000000 0.000000 44.088970 -39.859481 -34.587695 0.000037 -83.340534 0.000006 -23.122547 -8.493317 7.462408 -1.945765 1.585344 13.204804 8.601859 21.114944 -0.258292 -4.250523 28.326760 20.005248 -0.000002 -0.000001 0.000001 0.776308 5.158039 -28.512490 0.566016 2.514173 -25.370932 0.306476 1.871756 -18.596440 -0.000004 0.000001 -0.000003 0.776308 5.158035 -28.512495 0.566009 2.514178 -25.370932 0.084761 0.994025 -9.747970 -0.000001 -0.000001 -0.000002 0.776306 5.158036 -28.512498 0.351474 2.000422 -19.928011 0.131452 1.235370 -12.147808 0.000001 0.000002 -0.000002 0.776304 5.158039 -28.512492 0.064897 0.870545 -8.527016 0.131460 1.235370 -12.147806 0.000000 0.000000 -0.000000 0.484297 4.488120 3.202633 0.000000 0.000000 0.000000 -4.331802 2.278538 83.612451 0.000010 129.566612 -0.000006 -0.044847 -5.712120 64.772337 -1.120909 -3.665708 -6.555858 8.244837 -30.620790 -3.274786 -5.098219 -8.587466 -15.375850 0.000000 0.000001 0.000001 4.540597 -8.344328 48.387403 6.575548 -4.244504 114.349080 1.886327 -3.744691 53.459812 -0.000003 -0.000000 -0.000000 2.375470 -6.542202 44.640218 7.222606 -3.888172 123.454809 1.885855 -3.744341 53.452675 -0.000002 0.000000 0.000001 2.745565 -6.923872 44.442282 7.225019 -3.886597 123.490312 1.886200 -3.744590 53.457818 0.000003 0.000001 0.000003 -10.268029 -14.528490 47.436296 6.314148 -4.353043 110.862904 1.885507 -3.744066 53.447200 -0.000001 0.000000 0.000001 -3.416698 19.815164 15.174730 2.791079 2.139352 1.567741 22.994221 29.834891 -25.483851 -1.869949 -0.000026 -0.000003 -0.000000 -0.000001 0.000000 -5.072341 -19.609856 -16.989498 2.152044 -6.081977 -4.765632 33.810037 -29.964877 30.876563 -4.609510 0.000011 -0.000002 0.000001 0.000001 0.000000 
-0.037253 131.200424 -0.592369 -90.809653 -2.077005 1.605912 0.698920 -0.132048 -0.754570 0.841685 0.154199 -0.463160 0.000000 0.000000 0.000000 0.831227 0.158014 -0.488483 -3.937783 4.024676 -8.413908 2.565408 8.514522 -12.913617 -0.000000 -0.000001 0.000002 0.834865 -6.690142 -3.495208 0.000000 0.000000 0.000000 44.105871 -39.875051 -34.542917 0.000215 -83.340507 0.000231 -23.131815 -8.494022 7.461463 -1.945767 1.585348 13.204802 8.601858 21.114946 -0.258289 -4.250525 28.326760 20.005247 -0.000001 0.000003 -0.000003 0.776308 5.158038 -28.512490 0.566014 2.514174 -25.370932 0.306474 1.871753 -18.596442 -0.000005 0.000001 -0.000001 0.776306 5.158034 -28.512498 0.566009 2.514177 -25.370932 0.084764 0.994024 -9.747973 0.000000 -0.000000 -0.000001 0.776305 5.158036 -28.512498 0.351473 2.000424 -19.928013 0.131454 1.235367 -12.147807 0.000000 -0.000001 -0.000001 0.776304 5.158039 -28.512498 0.064895 0.870544 -8.527016 0.131459 1.235372 -12.147804 0.000001 0.000001 -0.000000 0.485165 4.473280 3.202566 0.000000 0.000000 0.000000 -4.337911 2.290703 83.617648 0.000046 129.559960 -0.000015 -0.044338 -5.712114 64.777480 -1.120907 -3.665707 -6.555861 8.244835 -30.620790 -3.274786 -5.098223 -8.587464 -15.375838 -0.000003 0.000003 0.000003 4.540595 -8.344329 48.387403 6.575554 -4.244508 114.349080 1.886327 -3.744692 53.459809 -0.000002 -0.000001 -0.000002 2.375467 -6.542201 44.640214 7.222608 -3.888174 123.454809 1.885857 -3.744339 53.452675 0.000000 0.000001 0.000002 2.745565 -6.923871 44.442282 7.225020 -3.886594 123.490312 1.886200 -3.744590 53.457821 -0.000001 -0.000002 -0.000002 -10.268030 -14.528489 47.436292 6.314151 -4.353042 110.862904 1.885509 -3.744066 53.447204 0.000000 -0.000001 -0.000000 -3.416310 19.815313 15.173668 2.795798 2.127729 1.567840 22.991175 29.833908 -25.482177 -1.862393 0.000005 0.000008 0.000001 0.000000 0.000000 -5.073707 -19.614980 -16.988163 2.154166 -6.069413 -4.765512 33.808542 -29.965396 30.875382 -4.623011 0.000009 -0.000000 -0.000000 0.000001 0.000000 
-0.035921 131.201050 -0.590523 -90.810889 -2.076386 1.606154 0.698895 -0.132115 -0.753765 0.841705 0.154198 -0.463160 0.000000 0.000000 0.000000 0.831234 0.158014 -0.488483 -3.979802 4.042043 -8.413908 2.683951 8.574678 -12.963799 -0.000000 -0.000001 -0.000000 0.835177 -6.657531 -3.509657 0.000000 0.000000 0.000000 44.126885 -39.892417 -34.487558 -0.000406 -83.340534 -0.000444 -23.142496 -8.494809 7.460388 -1.945764 1.585348 13.204807 8.601857 21.114948 -0.258294 -4.250522 28.326762 20.005252 0.000002 0.000002 0.000000 0.776308 5.158040 -28.512490 0.566016 2.514176 -25.370936 0.306479 1.871760 -18.596440 0.000000 -0.000002 -0.000002 0.776308 5.158038 -28.512498 0.566010 2.514181 -25.370929 0.084764 0.994025 -9.747968 -0.000001 0.000002 -0.000002 0.776306 5.158038 -28.512500 0.351474 2.000425 -19.928014 0.131454 1.235369 -12.147808 0.000001 0.000002 0.000001 0.776305 5.158041 -28.512495 0.064896 0.870535 -8.527017 0.131460 1.235371 -12.147805 -0.000000 0.000000 0.000000 0.486102 4.456129 3.202491 0.000000 0.000000 0.000000 -4.344473 2.305362 83.623065 -0.000027 129.552078 0.000040 -0.043857 -5.712112 64.782384 -1.120908 -3.665705 -6.555859 8.244836 -30.620790 -3.274785 -5.098221 -8.587465 -15.375847 0.000000 -0.000000 -0.000000 4.540598 -8.344326 48.387403 6.575549 -4.244505 114.349080 1.886325 -3.744695 53.459809 0.000002 -0.000002 -0.000001 2.375473 -6.542197 44.640214 7.222603 -3.888171 123.454809 1.885851 -3.744340 53.452678 -0.000001 0.000000 0.000001 2.745565 -6.923868 44.442282 7.225019 -3.886596 123.490298 1.886200 -3.744591 53.457821 -0.000001 -0.000000 -0.000001 -10.268027 -14.528485 47.436292 6.314155 -4.353042 110.862904 1.885504 -3.744066 53.447200 0.000001 -0.000001 -0.000001 -3.420391 19.820984 15.173964 2.802965 2.128550 1.567963 22.982787 29.832139 -25.481890 -1.850357 0.000004 0.000008 0.000000 0.000001 -0.000000 -5.075527 -19.624127 -16.987965 2.157856 -6.066086 -4.765078 33.807176 -29.965819 30.875850 -4.644848 -0.000013 0.000016 -0.000000 0.000000 -0.000000 
-0.034398 131.202057 -0.589005 -90.812344 -2.075864 1.606501 0.698933 -0.132168 -0.753141 0.841702 0.154199 -0.463161 0.000000 0.000000 0.000000 0.835887 0.158014 -0.488483 -4.036199 4.064476 -8.413905 2.850469 8.636295 -13.049385 -0.000000 0.000001 -0.000000 0.835476 -6.617842 -3.528197 0.000000 0.000000 0.000000 44.151460 -39.911179 -34.423016 0.000178 -83.340507 0.000176 -23.154352 -8.495716 7.459179 -1.945765 1.585344 13.204805 8.601861 21.114949 -0.258291 -4.250524 28.326756 20.005254 -0.000001 -0.000000 -0.000001 0.776306 5.158040 -28.512490 0.566013 2.514175 -25.370929 0.306477 1.871759 -18.596442 0.000003 -0.000002 0.000003 0.776306 5.158035 -28.512486 0.566010 2.514185 -25.370931 0.084767 0.994027 -9.747972 0.000002 0.000001 0.000000 0.776306 5.158035 -28.512495 0.351474 2.000424 -19.928014 0.131451 1.235367 -12.147810 0.000001 -0.000001 0.000000 0.776303 5.158041 -28.512495 0.064896 0.870543 -8.527016 0.131458 1.235369 -12.147805 -0.000001 0.000001 0.000001 0.487206 4.436630 3.202406 0.000000 0.000000 0.000000 -4.352123 2.322239 83.628816 0.000058 129.543034 -0.000045 -0.043392 -5.712119 64.786974 -1.120911 -3.665708 -6.555861 8.244840 -30.620793 -3.274785 -5.098221 -8.587464 -15.375842 -0.000004 0.000001 0.000001 4.540597 -8.344328 48.387396 6.575548 -4.244505 114.349074 1.886326 -3.744689 53.459805 -0.000002 -0.000000 0.000000 2.375469 -6.542199 44.640211 7.222607 -3.888169 123.454809 1.885852 -3.744341 53.452681 -0.000000 -0.000001 -0.000003 2.745558 -6.923873 44.442282 7.225015 -3.886594 123.490298 1.886203 -3.744589 53.457821 0.000002 -0.000001 -0.000001 -10.268030 -14.528485 47.436292 6.314150 -4.353043 110.862904 1.885507 -3.744066 53.447204 -0.000003 0.000000 0.000001 -3.425403 19.829450 15.170953 2.808400 2.099775 1.568131 22.978968 29.830564 -25.477895 -1.833856 -0.000002 -0.000002 0.000001 0.000003 0.000000 -5.077261 -19.636186 -16.986547 2.160798 -6.051823 -4.764791 33.802251 -29.963415 30.870799 -4.673553 -0.000002 0.000003 -0.000001 -0.000001 0.000000 
